<svg width="93" height="24" viewBox="0 0 93 24" fill="none" xmlns="http://www.w3.org/2000/svg"><g clip-path="url(#clip0_11275_169474)"><path d="M53.7278 6.69767L58.9743 4.74419L53.7278 2.73488V0L62.7138 3.62791V5.86046L53.7278 9.48837V6.69767Z" fill="currentColor"></path><path d="M4.10915 24C2.21147 24 0.648682 23.0511 0.648682 20.9302V20.8186C0.648682 18.2511 2.88124 17.3581 5.61612 17.3581H6.89984V16.8558C6.89984 15.7953 6.45333 15.1814 5.33705 15.1814C4.3324 15.1814 3.83008 15.7395 3.77426 16.5209H0.983565C1.20682 14.1767 3.04868 13.0604 5.5045 13.0604C8.01612 13.0604 9.85798 14.1209 9.85798 16.7442V23.7767H7.01147V22.5488C6.45333 23.3302 5.5045 24 4.10915 24ZM6.89984 20.3162V19.3116H5.72775C4.27659 19.3116 3.55101 19.7023 3.55101 20.6511V20.7628C3.55101 21.4883 3.99752 21.9907 5.00217 21.9907C6.00682 21.9349 6.89984 21.3767 6.89984 20.3162ZM16.4998 24C13.5975 24 11.4766 22.2139 11.4766 18.6418V18.4744C11.4766 14.9023 13.7091 13.0046 16.4998 13.0046C18.8998 13.0046 20.8533 14.2325 21.0766 16.9674H18.2859C18.1185 15.9628 17.5603 15.293 16.5557 15.293C15.3278 15.293 14.4347 16.2976 14.4347 18.3628V18.6976C14.4347 20.8186 15.2161 21.7674 16.5557 21.7674C17.5603 21.7674 18.2859 21.0418 18.4533 19.8697H21.1324C20.965 22.3256 19.3464 24 16.4998 24ZM27.4394 24C24.5371 24 22.4161 22.2139 22.4161 18.6418V18.4744C22.4161 14.9023 24.6487 13.0046 27.4394 13.0046C29.8394 13.0046 31.7929 14.2325 32.0161 16.9674H29.2254C29.058 15.9628 28.4998 15.293 27.4952 15.293C26.2673 15.293 25.3743 16.2976 25.3743 18.3628V18.6976C25.3743 20.8186 26.1557 21.7674 27.4952 21.7674C28.4998 21.7674 29.2254 21.0418 29.3929 19.8697H32.0719C31.9045 22.3256 30.2859 24 27.4394 24ZM38.4347 24C35.4208 24 33.3557 22.2139 33.3557 18.6976V18.4744C33.3557 14.9581 35.5324 13.0046 38.3789 13.0046C41.0022 13.0046 43.1789 14.4558 43.1789 17.9721V19.2558H36.3138C36.4254 21.1535 37.2626 21.879 38.4905 21.879C39.6068 21.879 40.2208 21.2651 40.444 20.5395H43.1789C42.844 22.493 41.1696 24 38.4347 24ZM36.3696 17.3023H40.2766C40.2208 15.7395 39.4952 15.0697 38.3231 15.0697C37.4301 15.1256 36.5929 15.6279 36.3696 17.3023ZM44.965 13.2837H47.9231V14.8465C48.4254 13.8418 49.4859 13.0604 51.1045 13.0604C53.0022 13.0604 54.2859 14.2325 54.2859 16.7442V23.7767H51.3278V17.1907C51.3278 15.9628 50.8254 15.4046 49.765 15.4046C48.7603 15.4046 47.9231 16.0186 47.9231 17.3581V23.7767H44.965V13.2837V13.2837ZM59.6998 10.1023V13.2837H61.7092V15.4604H59.6998V20.4279C59.6998 21.2093 60.0347 21.6 60.7603 21.6C61.2068 21.6 61.4859 21.5442 61.765 21.4325V23.7209C61.4301 23.8325 60.8161 23.9442 60.0905 23.9442C57.8022 23.9442 56.7417 22.8837 56.7417 20.7628V15.4604H55.5138V13.2837H56.7417V11.3302L59.6998 10.1023ZM72.7603 23.7767H69.858V22.2139C69.3557 23.2186 68.351 24 66.7882 24C64.8905 24 63.4952 22.8279 63.4952 20.3721V13.2837H66.4533V19.9814C66.4533 21.2093 66.9557 21.7674 67.9603 21.7674C68.965 21.7674 69.8022 21.0976 69.8022 19.8139V13.2837H72.7603V23.7767ZM74.9371 13.2837H77.8952V15.2372C78.5091 13.8418 79.5138 13.1721 81.0766 13.1721V16.0744C79.0673 16.0744 77.8952 16.6883 77.8952 18.4186V23.8325H74.9371V13.2837ZM87.0487 24C84.0347 24 81.9696 22.2139 81.9696 18.6976V18.4744C81.9696 14.9581 84.1464 13.0046 86.9929 13.0046C89.6161 13.0046 91.7929 14.4558 91.7929 17.9721V19.2558H84.9836C85.0952 21.1535 85.9324 21.879 87.1603 21.879C88.2766 21.879 88.8905 21.2651 89.1138 20.5395H91.8487C91.4022 22.493 89.7836 24 87.0487 24ZM84.9278 17.3023H88.8905C88.8347 15.7395 88.1092 15.0697 86.9371 15.0697C86.044 15.1256 85.2068 15.6279 84.9278 17.3023Z" fill="currentColor"></path></g><defs><clipPath id="clip0_11275_169474"><rect width="92" height="24" fill="white" transform="translate(0.5)"></rect></clipPath></defs></svg>