<svg xmlns="http://www.w3.org/2000/svg" version="1.1" xmlns:xlink="http://www.w3.org/1999/xlink" xmlns:svgjs="http://svgjs.dev/svgjs" width="2000" height="1247" viewBox="0 0 2000 1247"><g transform="matrix(1,0,0,1,-1.2121212121212466,0.504858299595071)"><svg viewBox="0 0 396 247" data-background-color="#ffffff" preserveAspectRatio="xMidYMid meet" height="1247" width="2000" xmlns="http://www.w3.org/2000/svg" xmlns:xlink="http://www.w3.org/1999/xlink"><g id="tight-bounds" transform="matrix(1,0,0,1,0.2400000000000091,-0.09999999999999432)"><svg viewBox="0 0 395.52 247.2" height="247.2" width="395.52"><g><svg></svg></g><g><svg viewBox="0 0 395.52 247.2" height="247.2" width="395.52"><g transform="matrix(1,0,0,1,75.54432,98.70649829379101)"><svg viewBox="0 0 244.43135999999998 49.78700341241796" height="49.78700341241796" width="244.43135999999998"><g><svg viewBox="0 0 244.43135999999998 49.78700341241796" height="49.78700341241796" width="244.43135999999998"><g><svg viewBox="0 0 244.43135999999998 49.78700341241796" height="49.78700341241796" width="244.43135999999998"><g><svg viewBox="0 0 244.43135999999998 49.78700341241796" height="49.78700341241796" width="244.43135999999998"><g><svg viewBox="0 0 244.43135999999998 49.78700341241796" height="49.78700341241796" width="244.43135999999998"><g><svg viewBox="0 0 244.43135999999998 49.78700341241796" height="49.78700341241796" width="244.43135999999998"><g transform="matrix(1,0,0,1,0,0)"><svg width="244.43135999999998" viewBox="4 -39.95000076293945 198.08999633789062 40.35000228881836" height="49.78700341241796" data-palette-color="#bb84e8"><path d="M26.15-10.5L26.15-37.55Q26.15-39.95 29.1-39.95L29.1-39.95Q32.05-39.95 32.05-37.55L32.05-37.55 32.05-3.05Q32.05-1.3 30.2-0.5L30.2-0.5 30.25-0.5Q29.45-0.15 28.55 0.05 27.65 0.25 26.8 0.25L26.8 0.25Q26.15 0.25 25.45 0.13 24.75 0 24.13-0.28 23.5-0.55 22.98-1.03 22.45-1.5 22.15-2.2L22.15-2.2 11.3-29.25 9.95-29.1 9.95-2.1Q9.95 0.3 6.95 0.3L6.95 0.3Q4 0.3 4-2.1L4-2.1 4-36.55Q4-38.6 5.8-39.3L5.8-39.3Q7.45-39.95 9.3-39.95L9.3-39.95Q10.6-39.95 11.93-39.43 13.25-38.9 13.95-37.45L13.95-37.45 24.75-10.35 26.15-10.5ZM47.05-30.1L55.05-30.1Q56.35-30.1 57.72-29.55 59.1-29 60.4-28.15L60.4-28.15 60.35-28.15Q61.65-27.2 62.35-25.68 63.05-24.15 63.05-22.15L63.05-22.15 63.05-7.95Q63.05-3.85 60.35-1.9L60.35-1.9Q57.7 0 55.05 0L55.05 0 47.05 0Q45.75 0 44.4-0.45 43.05-0.9 41.75-1.9L41.75-1.9Q39.05-3.8 39.05-7.95L39.05-7.95 39.05-22.15Q39.05-24.15 39.75-25.68 40.45-27.2 41.75-28.15L41.75-28.15 41.7-28.15Q42.95-29 44.35-29.55 45.75-30.1 47.05-30.1L47.05-30.1ZM47.95-4.7L54.15-4.7Q56-4.7 56.77-5.75 57.55-6.8 57.55-8L57.55-8 57.55-22.1Q57.55-23.35 56.77-24.38 56-25.4 54.15-25.4L54.15-25.4 47.95-25.4Q46.1-25.4 45.32-24.38 44.55-23.35 44.55-22.1L44.55-22.1 44.55-8Q44.55-6.8 45.32-5.75 46.1-4.7 47.95-4.7L47.95-4.7ZM91.95-10.5L91.95-37.55Q91.95-39.95 94.9-39.95L94.9-39.95Q97.84-39.95 97.84-37.55L97.84-37.55 97.84-3.05Q97.84-1.3 96-0.5L96-0.5 96.05-0.5Q95.25-0.15 94.34 0.05 93.45 0.25 92.59 0.25L92.59 0.25Q91.95 0.25 91.25 0.13 90.55 0 89.92-0.28 89.3-0.55 88.77-1.03 88.25-1.5 87.95-2.2L87.95-2.2 77.09-29.25 75.75-29.1 75.75-2.1Q75.75 0.3 72.75 0.3L72.75 0.3Q69.8 0.3 69.8-2.1L69.8-2.1 69.8-36.55Q69.8-38.6 71.59-39.3L71.59-39.3Q73.25-39.95 75.09-39.95L75.09-39.95Q76.4-39.95 77.72-39.43 79.05-38.9 79.75-37.45L79.75-37.45 90.55-10.35 91.95-10.5ZM118.94 0L112.39 0Q110.84 0 109.44-0.43 108.04-0.85 106.74-1.65L106.74-1.65 106.74-1.6Q104.29-3.15 104.29-7.3L104.29-7.3 104.29-9.75Q104.29-11.8 105.02-13.33 105.74-14.85 107.04-15.75L107.04-15.75 106.99-15.75Q108.24-16.6 109.64-17.03 111.04-17.45 112.34-17.45L112.34-17.45 123.39-17.45 123.39-22.1Q123.39-23.35 122.62-24.38 121.84-25.4 119.99-25.4L119.99-25.4 114.14-25.4Q112.24-25.4 111.52-24.48 110.79-23.55 110.79-22.3L110.79-22.3 110.79-21.9Q110.79-19.3 107.99-19.3L107.99-19.3Q105.19-19.3 105.19-21.9L105.19-21.9 105.19-22.35Q105.19-24.4 105.92-25.8 106.64-27.2 107.89-28.15L107.89-28.15 107.84-28.15Q109.14-29 110.57-29.55 111.99-30.1 113.29-30.1L113.29-30.1 120.89-30.1Q122.14-30.1 123.57-29.55 124.99-29 126.24-28.15L126.24-28.15 126.19-28.15Q127.49-27.2 128.19-25.68 128.89-24.15 128.89-22.15L128.89-22.15 128.89-2.1Q128.89 0.3 126.14 0.3L126.14 0.3Q125.59 0.3 125.12 0.25 124.64 0.2 124.27-0.03 123.89-0.25 123.67-0.68 123.44-1.1 123.44-1.8L123.44-1.8 123.39-12.75 113.29-12.75Q112.19-12.75 111.59-12.5 110.99-12.25 110.64-11.7L110.64-11.7Q110.24-10.85 110.07-10.38 109.89-9.9 109.89-9.3L109.89-9.3 109.89-7.35Q109.89-6.05 110.67-5.38 111.44-4.7 113.34-4.7L113.34-4.7 118.94-4.7Q120.79-4.7 120.79-2.35L120.79-2.35Q120.79-1.35 120.34-0.68 119.89 0 118.94 0L118.94 0ZM150.84-1.95L150.84-21.75Q150.84-22.4 150.64-23.03 150.44-23.65 150.14-24.2L150.14-24.2Q149.49-25.4 147.44-25.4L147.44-25.4 144.24-25.4Q142.19-25.4 141.49-24.2L141.49-24.2Q140.89-23.05 140.89-21.75L140.89-21.75 140.89-1.95Q140.89 0.4 138.14 0.4L138.14 0.4Q135.29 0.4 135.29-1.95L135.29-1.95 135.29-22.2Q135.29-26.3 137.99-28.2L137.99-28.2Q140.74-30.1 143.34-30.1L143.34-30.1 148.39-30.1Q149.54-30.1 150.94-29.65 152.34-29.2 153.64-28.25L153.64-28.25Q154.89-29.2 156.27-29.65 157.64-30.1 158.89-30.1L158.89-30.1 163.89-30.1Q166.54-30.1 169.19-28.2L169.19-28.2Q171.94-26.35 171.94-22.2L171.94-22.2 171.94-1.95Q171.94 0.4 169.14 0.4L169.14 0.4Q166.34 0.4 166.34-1.95L166.34-1.95 166.34-21.75Q166.34-22.4 166.19-23.05 166.04-23.7 165.64-24.25L165.64-24.25 165.69-24.2Q165.29-24.85 164.69-25.13 164.09-25.4 162.94-25.4L162.94-25.4 159.79-25.4Q157.69-25.4 157.04-24.2L157.04-24.2Q156.39-23.1 156.39-21.75L156.39-21.75 156.39-1.95Q156.39 0.4 153.64 0.4L153.64 0.4Q150.84 0.4 150.84-1.95L150.84-1.95ZM183.54-22.15L183.54-8Q183.54-6.8 184.31-5.75 185.09-4.7 186.94-4.7L186.94-4.7 193.19-4.7Q195.04-4.7 195.81-5.63 196.59-6.55 196.59-7.75L196.59-7.75 196.59-8.3Q196.59-10.65 199.34-10.65L199.34-10.65Q202.09-10.65 202.09-8.3L202.09-8.3 202.09-7.7Q202.09-5.6 201.41-4.25 200.74-2.9 199.39-1.9L199.39-1.9Q196.74 0 194.09 0L194.09 0 185.69 0Q183.04 0 180.54-1.9L180.54-1.9Q179.34-2.9 178.69-4.42 178.04-5.95 178.04-7.95L178.04-7.95 178.04-22.2Q178.04-26.25 180.54-28.2L180.54-28.2Q181.79-29.1 183.11-29.63 184.44-30.15 185.69-30.15L185.69-30.15 194.09-30.15Q195.29-30.15 196.74-29.68 198.19-29.2 199.44-28.4L199.44-28.4Q200.64-27.55 201.36-26.05 202.09-24.55 202.09-22.5L202.09-22.5 202.09-15.75Q202.09-14.6 201.41-13.7 200.74-12.8 198.94-12.8L198.94-12.8 188.14-12.8Q186.34-12.8 186.24-15.15L186.24-15.15Q186.24-17.5 188.14-17.5L188.14-17.5 196.64-17.5 196.59-22.15Q196.59-23.4 195.81-24.43 195.04-25.45 193.19-25.45L193.19-25.45 186.94-25.45Q185.09-25.45 184.31-24.43 183.54-23.4 183.54-22.15L183.54-22.15Z" opacity="1" transform="matrix(1,0,0,1,0,0)" fill="#ffffff" class="undefined-text-0" data-fill-palette-color="primary" id="text-0"></path></svg></g></svg></g></svg></g></svg></g></svg></g></svg></g></svg></g><path d="M191.01 92.706L191.01 32.142 8.094 32.142 8.094 215.058 191.01 215.058 191.01 154.494 186.52 154.494 186.52 210.568 12.584 210.568 12.584 36.632 186.52 36.632 186.52 92.706Z" fill="#ffffff" stroke="transparent" data-fill-palette-color="primary"></path></svg></g><defs></defs></svg><rect width="395.52" height="247.2" fill="none" stroke="none" visibility="hidden"></rect></g></svg></g></svg>