<svg width="40" height="48" viewBox="0 0 40 48" fill="none" xmlns="http://www.w3.org/2000/svg">
  <g clip-path="url(#a)">
    <path opacity=".3"
          d="M27.934 9.848a4.128 4.128 0 0 1-4.124-4.124V0H5.382A5.382 5.382 0 0 0 0 5.38v32.444A5.382 5.382 0 0 0 5.382 43.2h22.12a5.383 5.383 0 0 0 5.384-5.382V9.848h-4.952Z"
          fill="#A140FF"/>
    <path
      d="M32.886 9.848h-4.952a4.128 4.128 0 0 1-4.124-4.124V0l9.076 9.848Zm3.902 24.272H11.78a3.212 3.212 0 0 0-3.212 3.212v7.456A3.212 3.212 0 0 0 11.78 48h25.008A3.212 3.212 0 0 0 40 44.788v-7.456a3.212 3.212 0 0 0-3.212-3.212Z"
      fill="#A140FF"/>
    <path
      d="M15.718 42.674v1.454h-1.506v-1.454h1.506Zm7.52-4.516v5.97h-1.454V40.4l-1.294 3.734h-1.258l-1.302-3.742v3.742h-1.454v-5.97h1.778l1.624 4.158 1.6-4.158 1.76-.006Zm2.458 3.862v2.108h-1.454v-6.014H26.6c.714 0 1.26.178 1.634.532a1.88 1.88 0 0 1 .56 1.434c.007.35-.08.695-.25 1a1.75 1.75 0 0 1-.744.688 2.62 2.62 0 0 1-1.2.252h-.904Zm1.616-1.94c0-.533-.292-.8-.876-.8h-.74v1.566h.74c.584.005.876-.25.876-.766Zm2.068 2.942V41.8l2.748-3.768h1.564v3.718h.724v1.266h-.724v1.106H32.22v-1.106l-2.84.006Zm2.96-3.3-1.48 2.034h1.48v-2.034Z"
      fill="#fff"/>
    <path
      d="M23.888 26.382V16.84a.77.77 0 0 0-.114-.394l-.02-.032a.82.82 0 0 0-.084-.102l-.014-.012a.984.984 0 0 0-.086-.072l-.036-.022-.08-.044-.042-.018a.768.768 0 0 0-.096-.03h-.032a.646.646 0 0 0-.138-.014H9.674a.746.746 0 0 0-.678.742v9.574a.518.518 0 0 0 .11.34.742.742 0 0 0 .638.364h13.4a.748.748 0 0 0 .744-.738ZM9.8 17.896v-1.448h1.178v1.448H9.8Zm1.988 0v-1.448h1.178v1.448h-1.178Zm1.988 0v-1.448h1.178v1.448h-1.178Zm1.988 0v-1.448h1.178v1.448h-1.178Zm1.988 0v-1.448h1.178v1.448h-1.178Zm1.988 0v-1.448h1.178v1.448H19.74Zm1.988 0v-1.448h1.178v1.448h-1.178Zm-12.2 7.022v-6.63h13.846v6.63H9.528Zm.27 1.838v-1.448h1.178v1.448H9.798Zm1.988 0v-1.448h1.178v1.448h-1.178Zm1.988 0v-1.448h1.178v1.448h-1.178Zm1.988 0v-1.448h1.178v1.448h-1.178Zm1.988 0v-1.448h1.178v1.448H17.75Zm1.988 0v-1.448h1.178v1.448h-1.178Zm1.988 0v-1.448h1.178v1.448h-1.178Z"
      fill="#A140FF"/>
    <path
      d="m18.044 21.112-1.914-1.106a.652.652 0 0 0-.976.564v2.212a.653.653 0 0 0 .976.564l1.914-1.106a.652.652 0 0 0 0-1.128Z"
      fill="#A140FF"/>
  </g>
  <defs>
    <clipPath id="a">
      <path fill="#fff" d="M0 0h40v48H0z"/>
    </clipPath>
  </defs>
</svg>
