<svg width="40" height="48" viewBox="0 0 40 48" fill="none" xmlns="http://www.w3.org/2000/svg">
  <g clip-path="url(#a)" fill="#6366F1">
    <path opacity=".3"
          d="M30.915 12.402a3.942 3.942 0 0 1-3.939-3.937V3H9.39a5.137 5.137 0 0 0-5.14 5.137v30.968a5.137 5.137 0 0 0 5.138 5.137h21.113a5.137 5.137 0 0 0 5.137-5.137V12.402h-4.724Z"/>
    <path
      d="M35.64 12.402h-4.725a3.942 3.942 0 0 1-3.939-3.937V3l8.663 9.402Zm-6.457 6.582H9.473a.716.716 0 0 1 0-1.43h19.71a.716.716 0 0 1 0 1.43Zm0 4.271H9.473a.716.716 0 0 1 0-1.43h19.71a.716.716 0 0 1 0 1.43Zm0 4.27H9.473a.716.716 0 0 1 0-1.43h19.71a.715.715 0 0 1 0 1.43Zm0 4.269H9.473a.714.714 0 1 1 0-1.43h19.71a.716.716 0 0 1 0 1.43Z"/>
  </g>
  <defs>
    <clipPath id="a">
      <path fill="#fff" d="M4.25 3h31.5v42H4.25z"/>
    </clipPath>
  </defs>
</svg>
