<svg width="40" height="48" viewBox="0 0 40 48" fill="none" xmlns="http://www.w3.org/2000/svg">
  <g clip-path="url(#a)">
    <path opacity=".3"
          d="M27.933 9.85a4.128 4.128 0 0 1-4.124-4.124V0H5.382A5.382 5.382 0 0 0 0 5.382v32.442a5.382 5.382 0 0 0 5.382 5.374h22.12a5.381 5.381 0 0 0 5.383-5.374V9.85h-4.952Z"
          fill="#FF3E4C"/>
    <path
      d="M32.885 9.85h-4.952a4.128 4.128 0 0 1-4.124-4.124V0l9.076 9.85Zm-6.766 20.317H5.472a.75.75 0 1 1 0-1.498h20.647a.748.748 0 1 1 0 1.498Zm0-8.447H5.472a.75.75 0 1 1 0-1.499h20.647a.748.748 0 1 1 0 1.498Zm0 4.223H5.472a.75.75 0 1 1 0-1.498h20.647a.748.748 0 1 1 0 1.498Zm-8.144-8.448H5.472a.75.75 0 0 1 0-1.498h12.503a.75.75 0 0 1 0 1.498Zm0-4.224H5.472a.75.75 0 0 1 0-1.498h12.503a.75.75 0 0 1 .528 1.279.75.75 0 0 1-.528.22ZM36.786 34.12H11.78a3.212 3.212 0 0 0-3.211 3.213v7.455A3.212 3.212 0 0 0 11.78 48h25.006a3.212 3.212 0 0 0 3.212-3.212v-7.455a3.212 3.212 0 0 0-3.212-3.212Z"
      fill="#FF3E4C"/>
    <path
      d="M16.771 42.674v1.454h-1.504v-1.454h1.504Zm2.212-.656v2.11H17.53v-6.014h2.356c.714 0 1.26.178 1.634.533a1.878 1.878 0 0 1 .56 1.433c.007.35-.079.695-.25 1a1.754 1.754 0 0 1-.744.69 2.62 2.62 0 0 1-1.2.25l-.902-.002ZM20.6 40.08c0-.533-.292-.8-.876-.8h-.74v1.566h.74c.584.006.876-.25.876-.766Zm7.225 2.598c-.25.455-.629.826-1.088 1.068a3.487 3.487 0 0 1-1.672.382h-2.27v-6.014h2.27a3.544 3.544 0 0 1 1.676.374 2.6 2.6 0 0 1 1.084 1.056c.26.48.391 1.019.38 1.564.01.548-.12 1.088-.38 1.57Zm-1.564-.302a1.674 1.674 0 0 0 .472-1.268 1.668 1.668 0 0 0-.472-1.266 1.834 1.834 0 0 0-1.322-.452h-.69v3.436h.69c.483.03.957-.132 1.322-.45Zm6.689-4.262v1.159h-2.465v1.317h1.904v1.106h-1.904v2.432h-1.456v-6.014h3.922Z"
      fill="#fff"/>
    <path
      d="M25.753 11.773h-3.536c-.616 0-1.116.5-1.116 1.116v3.536c0 .617.5 1.116 1.116 1.116h3.536c.616 0 1.116-.5 1.116-1.116V12.89c0-.616-.5-1.116-1.116-1.116Z"
      fill="#FF3E4C"/>
  </g>
  <defs>
    <clipPath id="a">
      <path fill="#fff" d="M0 0h39.998v48H0z"/>
    </clipPath>
  </defs>
</svg>
