<svg width="41" height="48" viewBox="0 0 41 48" fill="none" xmlns="http://www.w3.org/2000/svg">
  <g clip-path="url(#clip0_11823_127803)">
    <g opacity="0.3">
      <path opacity="0.3"
            d="M27.9364 9.848C26.843 9.84694 25.7947 9.41211 25.0215 8.63894C24.2483 7.86577 23.8135 6.81743 23.8124 5.724V0H5.38444C3.95704 0 2.58812 0.567034 1.5788 1.57635C0.569476 2.58568 0.00244141 3.9546 0.00244141 5.38199V37.826C0.00456108 39.252 0.572525 40.6189 1.58162 41.6265C2.59071 42.6341 3.95843 43.2 5.38444 43.2H27.5064C28.9328 43.2 30.3008 42.6338 31.31 41.6258C32.3191 40.6177 32.8869 39.2504 32.8884 37.824V9.848H27.9364Z"
            fill="#005FAD"/>
    </g>
    <path
      d="M32.8885 9.848H27.9365C26.8431 9.84694 25.7947 9.41211 25.0216 8.63894C24.2484 7.86577 23.8136 6.81743 23.8125 5.724V0L32.8885 9.848Z"
      fill="#005FAD"/>
    <path
      d="M36.7906 34.1201H11.7826C10.0086 34.1201 8.57056 35.5582 8.57056 37.3321V44.7881C8.57056 46.562 10.0086 48.0001 11.7826 48.0001H36.7906C38.5645 48.0001 40.0026 46.562 40.0026 44.7881V37.3321C40.0026 35.5582 38.5645 34.1201 36.7906 34.1201Z"
      fill="#005FAD"/>
    <path d="M15.8144 42.6741V44.1281H14.3083V42.6741H15.8144Z" fill="white"/>
    <path
      d="M18.0263 42.02V44.128H16.5703V38.114H18.9263C19.6423 38.114 20.187 38.2913 20.5603 38.646C20.7498 38.8319 20.8979 39.0557 20.9947 39.3029C21.0916 39.55 21.1351 39.8149 21.1223 40.08C21.1286 40.4298 21.0416 40.775 20.8703 41.08C20.6966 41.3785 20.4375 41.6182 20.1263 41.768C19.7521 41.9465 19.3407 42.0329 18.9263 42.02H18.0263ZM19.6423 40.08C19.6423 39.5467 19.3503 39.28 18.7663 39.28H18.0263V40.846H18.7663C19.3503 40.8513 19.6423 40.596 19.6423 40.08Z"
      fill="white"/>
    <path
      d="M27.1785 44.128H25.7245L23.2885 40.436V44.128H21.8345V38.114H23.2885L25.7225 41.84V38.114H27.1765L27.1785 44.128Z"
      fill="white"/>
    <path
      d="M32.8604 38.6C33.3457 38.9632 33.6718 39.5 33.7704 40.098H32.2304C32.1294 39.8838 31.9673 39.7043 31.7644 39.582C31.5353 39.4462 31.2728 39.3769 31.0064 39.382C30.7995 39.3735 30.5932 39.4104 30.4021 39.4902C30.211 39.5701 30.0398 39.6908 29.9004 39.844C29.6082 40.1952 29.4596 40.6439 29.4844 41.1C29.4844 41.672 29.6304 42.1114 29.9224 42.4181C30.0865 42.5774 30.2822 42.7006 30.4968 42.7798C30.7114 42.8591 30.9401 42.8925 31.1684 42.8781C31.4947 42.8837 31.814 42.7833 32.0784 42.5921C32.3477 42.3904 32.542 42.1047 32.6304 41.7801H30.7944V40.734H33.8484V42.2C33.7301 42.5577 33.5448 42.8897 33.3024 43.1781C33.0406 43.4885 32.7144 43.7383 32.3464 43.91C31.9292 44.1027 31.4739 44.1984 31.0144 44.1901C30.4562 44.2042 29.9042 44.0703 29.4144 43.8021C28.9663 43.5508 28.6013 43.174 28.3644 42.7181C28.1109 42.227 27.9838 41.6806 27.9944 41.1281C27.9824 40.5722 28.1096 40.0222 28.3644 39.5281C28.601 39.0732 28.9643 38.6967 29.4104 38.444C29.8931 38.1782 30.4376 38.045 30.9884 38.058C31.6554 38.0253 32.3141 38.2161 32.8604 38.6Z"
      fill="white"/>
    <path d="M10.9424 13.344H8.19238V16.094H10.9424V13.344Z" fill="#005FAD"/>
    <path d="M13.6943 16.094H10.9443V18.844H13.6943V16.094Z" fill="#005FAD"/>
    <path d="M16.4443 13.344H13.6943V16.094H16.4443V13.344Z" fill="#005FAD"/>
    <path d="M19.1943 16.094H16.4443V18.844H19.1943V16.094Z" fill="#005FAD"/>
    <path d="M21.9485 13.344H19.1985V16.094H21.9485V13.344Z" fill="#005FAD"/>
    <path d="M24.6985 16.094H21.9485V18.844H24.6985V16.094Z" fill="#005FAD"/>
    <path d="M10.9424 18.8401H8.19238V21.5901H10.9424V18.8401Z" fill="#005FAD"/>
    <path d="M13.6943 21.5901H10.9443V24.3401H13.6943V21.5901Z" fill="#005FAD"/>
    <path d="M16.4443 18.8401H13.6943V21.5901H16.4443V18.8401Z" fill="#005FAD"/>
    <path d="M19.1943 21.5901H16.4443V24.3401H19.1943V21.5901Z" fill="#005FAD"/>
    <path d="M21.9485 18.8401H19.1985V21.5901H21.9485V18.8401Z" fill="#005FAD"/>
    <path d="M24.6985 21.5901H21.9485V24.3401H24.6985V21.5901Z" fill="#005FAD"/>
    <path d="M10.9424 24.3621H8.19238V27.1121H10.9424V24.3621Z" fill="#005FAD"/>
    <path d="M13.6943 27.1121H10.9443V29.8621H13.6943V27.1121Z" fill="#005FAD"/>
    <path d="M16.4443 24.3621H13.6943V27.1121H16.4443V24.3621Z" fill="#005FAD"/>
    <path d="M19.1943 27.1121H16.4443V29.8621H19.1943V27.1121Z" fill="#005FAD"/>
    <path d="M21.9485 24.3621H19.1985V27.1121H21.9485V24.3621Z" fill="#005FAD"/>
    <path d="M24.6985 27.1121H21.9485V29.8621H24.6985V27.1121Z" fill="#005FAD"/>
  </g>
  <defs>
    <clipPath id="clip0_11823_127803">
      <rect width="40" height="48" fill="white" transform="translate(0.00244141)"/>
    </clipPath>
  </defs>
</svg>
