<svg width="41" height="48" viewBox="0 0 41 48" fill="none" xmlns="http://www.w3.org/2000/svg">
  <g clip-path="url(#a)">
    <path opacity=".3"
          d="M27.934 9.848a4.128 4.128 0 0 1-4.123-4.124V0H5.384A5.384 5.384 0 0 0 0 5.384v32.442a5.384 5.384 0 0 0 5.385 5.384h22.12a5.383 5.383 0 0 0 5.381-5.384V9.85l-4.952-.002Z"
          fill="#FF9908"/>
    <path
      d="M32.886 9.848h-4.951a4.128 4.128 0 0 1-4.124-4.124V0l9.075 9.848ZM36.79 34.12H11.784a3.212 3.212 0 0 0-3.212 3.212v7.456A3.212 3.212 0 0 0 11.783 48H36.79a3.212 3.212 0 0 0 3.212-3.212v-7.456a3.212 3.212 0 0 0-3.212-3.212Z"
      fill="#FF9908"/>
    <path
      d="M16 42.674v1.456h-1.506v-1.456H16Zm4.836.638a1.7 1.7 0 0 1-.714.638c-.358.168-.75.25-1.146.238a2.696 2.696 0 0 1-1.666-.492 1.779 1.779 0 0 1-.714-1.378h1.548a.814.814 0 0 0 .242.536.746.746 0 0 0 .532.2.62.62 0 0 0 .442-.152.534.534 0 0 0 .162-.4.528.528 0 0 0-.15-.384 1.128 1.128 0 0 0-.37-.25 8.647 8.647 0 0 0-.612-.234 7.533 7.533 0 0 1-.932-.378 1.71 1.71 0 0 1-.62-.546 1.566 1.566 0 0 1-.26-.94c-.008-.33.087-.654.272-.926.19-.268.451-.476.754-.6.35-.141.724-.21 1.1-.2a2.468 2.468 0 0 1 1.6.476 1.822 1.822 0 0 1 .668 1.28h-1.574a.8.8 0 0 0-.218-.472.635.635 0 0 0-.472-.174.6.6 0 0 0-.412.136.5.5 0 0 0-.158.4.5.5 0 0 0 .142.36c.1.104.22.187.352.244.142.062.346.142.612.238.325.104.64.233.944.386.251.134.467.325.63.558a1.6 1.6 0 0 1 .264.952c.003.312-.082.618-.246.884Zm2.174-5.196 1.47 4.524 1.472-4.524h1.558l-2.094 6.014h-1.88l-2.084-6.014h1.558Zm9.738.484c.485.364.812.9.913 1.498h-1.54a1.174 1.174 0 0 0-.469-.514 1.429 1.429 0 0 0-.758-.2 1.416 1.416 0 0 0-1.105.464 1.8 1.8 0 0 0-.417 1.254c0 .572.146 1.011.439 1.318a1.642 1.642 0 0 0 1.245.46c.327.006.646-.094.91-.286.27-.202.465-.487.554-.812h-1.838v-1.046h3.055v1.438c-.118.358-.303.69-.544.978-.264.31-.59.56-.959.732a3.04 3.04 0 0 1-1.33.28 3.166 3.166 0 0 1-1.6-.386 2.642 2.642 0 0 1-1.05-1.086 3.342 3.342 0 0 1-.37-1.6 3.342 3.342 0 0 1 .37-1.59c.237-.455.6-.833 1.046-1.086a3.119 3.119 0 0 1 1.578-.386 3 3 0 0 1 1.87.57Z"
      fill="#fff"/>
    <path
      d="M24.607 25.546h-.498a7.623 7.623 0 0 0-7.614-7.612 7.62 7.62 0 0 0-7.612 7.612h-.5a8.12 8.12 0 0 1 8.112-8.11 8.12 8.12 0 0 1 8.112 8.11Z"
      fill="#FF9908"/>
    <path
      d="M28.02 17.436H4.97v.498h23.05v-.498ZM9.428 24.75H7.834v1.594h1.594V24.75Zm15.725 0h-1.594v1.594h1.594V24.75Z"
      fill="#FF9908"/>
    <path
      d="M17.29 16.862h-1.593v1.594h1.594v-1.594ZM4.943 18.458a.798.798 0 1 0 0-1.596.798.798 0 0 0 0 1.596Zm23.002 0a.798.798 0 1 0 0-1.596.798.798 0 0 0 0 1.596Z"
      fill="#FF9908"/>
  </g>
  <defs>
    <clipPath id="a">
      <path fill="#fff" d="M0 0h40.002v48H0z"/>
    </clipPath>
  </defs>
</svg>
